External Loads File
version=1
nRows=77
nColumns=13
Range=5.000000e-03-10 seconds
endheader
time 	forceRightX 	forceRightY 	forceRightZ 	pointRightX 	pointRightY 	pointRightZ 	forceLeftX 	forceLeftY 	forceLeftZ 	pointLeftX 	pointLeftY 	pointLeftZ 		
7.505000 37.227734 -73.792078 -0.000000 0.144645 0.388120 -0.111016 -29.365952 927.550236 -0.000000 0.421475 0.268577 -0.363051
7.510000 39.267442 -70.072625 -0.000000 0.148833 0.398304 -0.111165 -20.145983 976.747027 -0.000000 0.417865 0.258002 -0.363016
7.515000 40.317664 -68.103228 -0.000000 0.153597 0.408190 -0.111438 -10.801637 1027.719224 -0.000000 0.413734 0.247799 -0.362912
7.520000 39.960810 -67.826521 -0.000000 0.158869 0.417933 -0.111672 0.020701 1079.677298 -0.000000 0.409013 0.237952 -0.362704
7.525000 38.028754 -68.887524 -0.000000 0.164705 0.427233 -0.111895 10.852858 1131.715927 -0.000000 0.403740 0.228934 -0.362547
7.530000 34.194929 -71.010601 -0.000000 0.170971 0.436287 -0.112207 25.087692 1182.870773 -0.000000 0.397926 0.219830 -0.362394
7.535000 28.570555 -73.739184 -0.000000 0.177774 0.444933 -0.112560 41.307093 1232.092995 -0.000000 0.391661 0.211137 -0.362296
7.540000 21.209384 -76.702089 -0.000000 0.185109 0.453363 -0.112842 60.364439 1278.103487 -0.000000 0.384964 0.202867 -0.362237
7.545000 12.384108 -79.481572 -0.000000 0.192757 0.461131 -0.113214 80.395148 1319.546592 -0.000000 0.377943 0.195048 -0.362172
7.550000 2.226725 -81.710658 -0.000000 0.200865 0.468536 -0.113595 102.899106 1354.831835 -0.000000 0.370494 0.187786 -0.362097
7.555000 -8.888826 -82.975387 -0.000000 0.209348 0.475325 -0.113904 126.559204 1382.608826 -0.000000 0.362726 0.181149 -0.362084
7.560000 -20.513808 -82.902901 -0.000000 0.217878 0.481467 -0.114712 150.039425 1401.826861 -0.000000 0.354614 0.175184 -0.362081
7.565000 -32.341102 -81.152271 -0.000000 0.226982 0.487069 -0.115197 174.954822 1411.448778 -0.000000 0.346318 0.169688 -0.361972
7.570000 -43.958344 -77.493894 -0.000000 0.236558 0.492186 -0.115446 200.833327 1410.883038 -0.000000 0.337706 0.164834 -0.362013
7.575000 -54.806004 -71.958808 -0.000000 0.245755 0.496592 -0.116113 223.433636 1400.340000 -0.000000 0.328881 0.160538 -0.362022
7.580000 -64.826536 -64.421602 -0.000000 0.255672 0.500462 -0.116652 246.724431 1378.987291 -0.000000 0.319857 0.156897 -0.362027
7.585000 -73.619228 -55.177593 -0.000000 0.265499 0.503796 -0.117154 267.001104 1347.314594 -0.000000 0.310671 0.153916 -0.362081
7.590000 -81.009295 -44.603004 -0.000000 0.275183 0.506453 -0.117539 283.083479 1305.619369 -0.000000 0.301483 0.151662 -0.362115
7.595000 -86.994050 -33.001215 -0.000000 0.284970 0.508553 -0.117964 296.042921 1253.778077 -0.000000 0.292225 0.150061 -0.362174
7.600000 -91.572479 -20.729558 -0.000000 0.294761 0.510056 -0.118344 305.228241 1192.035788 -0.000000 0.282905 0.149165 -0.362106
7.605000 -94.768066 -8.105661 -0.000000 0.304356 0.510822 -0.118741 309.610899 1120.876662 -0.000000 0.273601 0.149055 -0.362101
7.610000 -96.618934 4.736720 -0.000000 0.314126 0.510939 -0.118909 309.823810 1040.591160 -0.000000 0.264437 0.149587 -0.362089
7.615000 -97.186257 17.555746 -0.000000 0.323794 0.510374 -0.119461 305.034654 952.254681 -0.000000 0.255390 0.150859 -0.361932
7.620000 -96.655501 30.102109 -0.000000 0.332786 0.509186 -0.119543 294.494647 857.492898 -0.000000 0.246241 0.153004 -0.360417
7.625000 -95.346406 42.182600 -0.000000 0.341630 0.507327 -0.119653 277.954071 758.379139 -0.000000 0.237760 0.155697 -0.360500
7.630000 -93.623520 53.857061 -0.000000 0.350279 0.504827 -0.119723 256.635404 656.958585 -0.000000 0.229625 0.158758 -0.360436
7.635000 -91.879714 65.362114 -0.000000 0.358636 0.501612 -0.119839 231.654025 555.637379 -0.000000 0.221798 0.162882 -0.360490
7.640000 -90.565504 77.062876 -0.000000 0.366796 0.497674 -0.119680 203.656401 457.248432 -0.000000 0.214395 0.167539 -0.360519
7.645000 -90.072042 89.598417 -0.000000 0.374441 0.492925 -0.119513 173.905425 364.442551 -0.000000 0.207282 0.173080 -0.360486
7.650000 -90.716586 103.815674 -0.000000 0.382016 0.487421 -0.119453 143.765847 279.607508 -0.000000 0.200504 0.178815 -0.360465
7.655000 -92.939166 120.525294 -0.000000 0.388964 0.481132 -0.119158 114.135520 204.872686 -0.000000 0.194164 0.184562 -0.360474
7.660000 -96.733518 140.863792 -0.000000 0.395411 0.474504 -0.118828 86.725157 141.178813 -0.000000 0.188101 0.191103 -0.360510
7.665000 -101.957770 165.824919 -0.000000 0.401408 0.466763 -0.118447 62.561610 88.860102 -0.000000 0.182202 0.197755 -0.360582
7.670000 -108.665676 195.952084 -0.000000 0.406879 0.458550 -0.118020 42.101358 47.644445 -0.000000 0.176699 0.204718 -0.360576
7.675000 -116.596666 231.562570 -0.000000 0.411833 0.449908 -0.117605 25.653525 16.522929 -0.000000 0.171453 0.212035 -0.360726
7.680000 -125.189557 272.603586 -0.000000 0.416408 0.440462 -0.117418 13.117804 -5.876250 -0.000000 0.166523 0.219702 -0.360878
7.685000 -134.247605 318.331532 -0.000000 0.420626 0.430796 -0.117360 4.093420 -21.070735 -0.000000 0.161991 0.227869 -0.361182
7.690000 -143.550003 367.644092 -0.000000 0.424357 0.420927 -0.117331 -1.952221 -30.652355 -0.000000 0.157936 0.236403 -0.362076
7.695000 -152.425235 419.404432 -0.000000 0.427611 0.410782 -0.117400 -5.671921 -36.113106 -0.000000 0.154225 0.245285 -0.362290
7.700000 -160.249203 472.399176 -0.000000 0.430378 0.400292 -0.117469 -7.701238 -38.715912 -0.000000 0.151016 0.254534 -0.362511
7.705000 -166.729182 525.426921 -0.000000 0.432657 0.389647 -0.117481 -8.548625 -39.436727 -0.000000 0.148359 0.264102 -0.362633
7.710000 -171.443915 577.615935 -0.000000 0.434395 0.378812 -0.117726 -8.590744 -38.949620 -0.000000 0.146197 0.273919 -0.362728
7.715000 -174.010012 628.458151 -0.000000 0.435584 0.367748 -0.117765 -8.027154 -37.670297 -0.000000 0.144554 0.283985 -0.362854
7.720000 -174.842949 677.631448 -0.000000 0.436367 0.356764 -0.117511 -6.822837 -35.838157 -0.000000 0.143543 0.294291 -0.363060
7.725000 -173.549288 725.366192 -0.000000 0.436721 0.345749 -0.117906 -4.819815 -33.587675 -0.000000 0.142983 0.304842 -0.363083
7.730000 -169.846503 771.983637 -0.000000 0.436730 0.334479 -0.117720 -1.727710 -31.054514 -0.000000 0.142999 0.315459 -0.363194
7.735000 -164.356491 817.561257 -0.000000 0.436195 0.323450 -0.117332 2.798506 -28.438066 -0.000000 0.143522 0.326272 -0.362649
7.740000 -154.563546 862.622802 -0.000000 0.434695 0.311816 -0.116801 8.868209 -26.039749 -0.000000 0.144777 0.337066 -0.363496
7.745000 -142.037773 906.616836 -0.000000 0.432942 0.300549 -0.117099 16.427233 -24.219869 -0.000000 0.146497 0.348065 -0.363537
7.750000 -126.638332 949.172070 -0.000000 0.430612 0.289316 -0.116685 24.926187 -23.308382 -0.000000 0.148903 0.358797 -0.363471
7.755000 -108.225022 989.733765 -0.000000 0.427823 0.278349 -0.116582 33.526973 -23.506838 -0.000000 0.151758 0.369539 -0.363488
7.760000 -87.077785 1027.520793 -0.000000 0.424438 0.267645 -0.116300 41.430361 -24.845253 -0.000000 0.155235 0.380087 -0.363367
7.765000 -63.527295 1061.662839 -0.000000 0.420620 0.257257 -0.116332 48.050973 -27.230123 -0.000000 0.159265 0.390523 -0.363367
7.770000 -39.158522 1091.285112 -0.000000 0.416057 0.247398 -0.116189 53.041212 -30.418708 -0.000000 0.163753 0.400544 -0.363401
7.775000 -13.528802 1115.808634 -0.000000 0.411099 0.237973 -0.115777 56.167399 -34.185376 -0.000000 0.168806 0.410433 -0.363590
7.780000 12.244009 1134.812943 -0.000000 0.405857 0.228829 -0.116043 57.380467 -38.168587 -0.000000 0.174393 0.419953 -0.363484
7.785000 37.513390 1148.112204 -0.000000 0.400041 0.220227 -0.115930 56.733883 -41.960355 -0.000000 0.180366 0.429142 -0.363557
7.790000 61.434692 1155.644018 -0.000000 0.393817 0.212057 -0.115522 54.372956 -45.059272 -0.000000 0.186772 0.437732 -0.363615
7.795000 86.026074 1157.223902 -0.000000 0.387096 0.204293 -0.115638 50.388854 -46.989361 -0.000000 0.193679 0.446363 -0.363671
7.800000 107.687497 1153.068908 -0.000000 0.380135 0.197189 -0.115286 45.147076 -46.908384 -0.000000 0.200847 0.454377 -0.363403
7.805000 124.823537 1143.506547 -0.000000 0.372728 0.190579 -0.115159 38.987957 -44.050880 -0.000000 0.207353 0.461856 -0.360948
7.810000 147.366032 1127.570290 -0.000000 0.364832 0.184640 -0.114947 31.875568 -38.085872 -0.000000 0.216277 0.468866 -0.362295
7.815000 166.997992 1106.302210 -0.000000 0.356745 0.179180 -0.114926 24.555922 -28.264393 -0.000000 0.225283 0.475079 -0.363657
7.820000 181.692839 1080.330148 -0.000000 0.348405 0.174300 -0.114790 17.455452 -14.518565 -0.000000 0.233594 0.480672 -0.363506
7.825000 195.428477 1049.268589 -0.000000 0.339825 0.169943 -0.114660 10.803435 2.621563 -0.000000 0.242421 0.485626 -0.363367
7.830000 206.018483 1013.695083 -0.000000 0.331053 0.166172 -0.114447 4.803602 22.264926 -0.000000 0.251064 0.490063 -0.363437
7.835000 215.044595 973.559999 -0.000000 0.321992 0.163028 -0.114248 -0.513492 43.121174 -0.000000 0.260027 0.493582 -0.364048
7.840000 221.581949 929.433291 -0.000000 0.312808 0.160580 -0.113989 -5.292099 63.784385 -0.000000 0.269113 0.496193 -0.364175
7.845000 226.914596 881.534858 -0.000000 0.303393 0.158808 -0.113827 -9.670386 82.954256 -0.000000 0.278558 0.498428 -0.364063
7.850000 230.059250 830.675083 -0.000000 0.293788 0.157611 -0.113629 -14.000529 99.626011 -0.000000 0.288017 0.500122 -0.363338
7.855000 229.877163 777.734850 -0.000000 0.284187 0.157243 -0.113411 -18.755662 113.205502 -0.000000 0.297025 0.500995 -0.363916
7.860000 228.219457 722.641352 -0.000000 0.274630 0.157490 -0.112977 -23.950484 123.610557 -0.000000 0.306160 0.500699 -0.363949
7.865000 225.017049 665.722278 -0.000000 0.264935 0.158537 -0.112917 -29.713724 131.118150 -0.000000 0.315225 0.500935 -0.363901
7.870000 220.975074 606.965685 -0.000000 0.254981 0.160340 -0.112770 -35.927537 136.334055 -0.000000 0.324190 0.500054 -0.363841
7.875000 215.018058 546.982884 -0.000000 0.245516 0.162929 -0.112827 -42.751839 139.988561 -0.000000 0.333154 0.498474 -0.363520
7.880000 207.192349 486.126053 -0.000000 0.236147 0.166189 -0.112820 -50.066496 142.986192 -0.000000 0.341653 0.496204 -0.363518
7.885000 198.147983 424.646153 -0.000000 0.227009 0.170207 -0.112792 -57.483031 146.359667 -0.000000 0.349889 0.492151 -0.363554
